<?xml version="1.0" encoding="UTF-8"?>
<svg version="1.1" xmlns="http://www.w3.org/2000/svg" width="148" height="148">
<path d="M0 0 C48.84 0 97.68 0 148 0 C148 48.84 148 97.68 148 148 C99.16 148 50.32 148 0 148 C0 99.16 0 50.32 0 0 Z " fill="#060606" transform="translate(0,0)"/>
<path d="M0 0 C48.84 0 97.68 0 148 0 C148 48.84 148 97.68 148 148 C99.16 148 50.32 148 0 148 C0 99.16 0 50.32 0 0 Z M67.58984375 5.02734375 C65.98206055 5.96803711 65.98206055 5.96803711 64.34179688 6.92773438 C63.21837891 7.59095703 62.09496094 8.25417969 60.9375 8.9375 C59.81021484 9.59685547 58.68292969 10.25621094 57.52148438 10.93554688 C52.48662355 13.59249596 52.48662355 13.59249596 48 17 C47.92820036 18.51928038 47.91607993 20.04167482 47.9375 21.5625 C47.94652344 22.38878906 47.95554688 23.21507813 47.96484375 24.06640625 C47.97644531 24.70449219 47.98804688 25.34257812 48 26 C47.113125 25.319375 46.22625 24.63875 45.3125 23.9375 C42.29844869 21.75179875 42.29844869 21.75179875 39.64941406 22.18359375 C36.55960141 23.13570705 34.0810513 24.47976299 31.296875 26.125 C30.2346875 26.74890625 29.1725 27.3728125 28.078125 28.015625 C26.97984375 28.67046875 25.8815625 29.3253125 24.75 30 C23.63625 30.65484375 22.5225 31.3096875 21.375 31.984375 C16.41867979 34.62498062 16.41867979 34.62498062 12 38 C11.86196092 40.40149927 11.78693402 42.77225199 11.76171875 45.17578125 C11.753647 45.89734909 11.74557526 46.61891693 11.73725891 47.36235046 C11.72340329 48.89315376 11.71268776 50.42398814 11.70483398 51.95483398 C11.68764517 54.2927547 11.64377917 56.62925237 11.59960938 58.96679688 C11.58948051 60.45311458 11.58096501 61.93944434 11.57421875 63.42578125 C11.54795662 64.47286003 11.54795662 64.47286003 11.52116394 65.54109192 C11.53685899 69.06658827 11.75792317 70.70455603 14.02661133 73.47338867 C14.67782959 73.97717041 15.32904785 74.48095215 16 75 C15.35458252 75.34893311 14.70916504 75.69786621 14.04418945 76.05737305 C11.0671148 78.88653619 11.40724364 81.03528104 11.29296875 85.08203125 C11.2439308 87.24484884 11.20884715 89.40520028 11.20385742 91.56860352 C11.18760881 93.79757393 11.10224328 96.01702632 11.01367188 98.24414062 C10.70422 105.68691534 10.70422 105.68691534 13.78857422 112.17773438 C16.12339081 113.7452897 18.42547867 114.87628004 21 116 C22.34226417 116.82909686 23.6715373 117.67974071 24.984375 118.5546875 C26.23825197 119.3302815 27.49344454 120.10375302 28.75 120.875 C29.69939453 121.47828125 29.69939453 121.47828125 30.66796875 122.09375 C34.2165597 124.26274322 36.81022025 125.7178294 41 125 C42.485 124.01 42.485 124.01 44 123 C43.88011719 124.50626953 43.88011719 124.50626953 43.7578125 126.04296875 C44.19184665 129.06674001 44.87423606 129.8977059 47.28417969 131.85791016 C50.42911064 133.7906566 53.61943456 135.57258529 56.875 137.3125 C57.99003906 137.93189453 59.10507812 138.55128906 60.25390625 139.18945312 C62.32035955 140.33734425 64.39259607 141.47492678 66.47216797 142.59887695 C69 144 69 144 72 146 C76.32441422 145.69219455 79.4842379 143.78510192 83.17578125 141.62109375 C83.74580368 141.28956802 84.31582611 140.9580423 84.90312195 140.61647034 C86.71021101 139.56342937 88.51135275 138.5006655 90.3125 137.4375 C91.54193713 136.71874965 92.7717512 136.00064367 94.00195312 135.28320312 C97.00570084 133.52957186 100.00419744 131.767178 103 130 C103 127.69 103 125.38 103 123 C103.556875 123.33 104.11375 123.66 104.6875 124 C107.55536776 125.24015903 108.86984776 125.38649098 112 125 C114.92961258 123.66176785 117.63564885 122.00064909 120.375 120.3125 C121.10460937 119.87744141 121.83421875 119.44238281 122.5859375 118.99414062 C124.04289726 118.1160622 125.48538355 117.21350395 126.91210938 116.28710938 C129 115 129 115 131.07226562 114.11914062 C133.41327528 112.96887851 134.52839833 112.17719045 136 110 C136.8705826 105.3390818 136.92358738 100.84461746 136.80273438 96.11572266 C136.74995704 93.8731744 136.76159645 91.63749212 136.78125 89.39453125 C136.77888768 83.66487681 136.77888768 83.66487681 136 78 C133.59083506 75.99581734 133.59083506 75.99581734 131 75 C131.80840332 74.49259277 132.61680664 73.98518555 133.44970703 73.46240234 C136.22570236 70.78207601 136.62780568 69.45949605 136.79733276 65.66934204 C136.79975983 64.98697479 136.80218689 64.30460754 136.8046875 63.6015625 C136.81895782 62.88898285 136.83322815 62.1764032 136.84793091 61.44223022 C136.8688151 59.93784809 136.8764104 58.43323027 136.87158203 56.92871094 C136.87498374 54.63595978 136.95283818 52.35360401 137.03515625 50.0625 C137.32480555 42.45633973 137.32480555 42.45633973 134.22460938 35.79321289 C131.88447631 34.2099887 129.59879722 33.10045128 127 32 C125.58862979 31.17763183 124.18694596 30.3383487 122.796875 29.48046875 C121.44999552 28.71248843 120.10104969 27.94812003 118.75 27.1875 C118.069375 26.79369141 117.38875 26.39988281 116.6875 25.99414062 C111.64165754 23.12170568 111.64165754 23.12170568 106 22 C102.70751892 23.83317376 102.70751892 23.83317376 100 26 C100.22623047 25.1646875 100.22623047 25.1646875 100.45703125 24.3125 C100.89271549 21.47815857 100.89383764 19.74566394 100 17 C96.59568942 14.06358045 92.80404867 12.02885066 88.83544922 9.97167969 C85.92361809 8.4301676 83.13296283 6.70253393 80.3125 5 C74.53772511 1.57337861 73.38076927 1.62905065 67.58984375 5.02734375 Z " fill="#FDFDFD" transform="translate(0,0)"/>
<path d="M0 0 C3.13236146 1.20347373 6.07245926 2.50465161 8.98828125 4.1640625 C9.62548096 4.5245166 10.26268066 4.8849707 10.91918945 5.25634766 C11.70898193 5.70800293 12.49877441 6.1596582 13.3125 6.625 C15.849375 8.06875 18.38625 9.5125 21 11 C21 18.92 21 26.84 21 35 C18.35580912 33.57620491 15.71720913 32.14069215 13.11328125 30.64453125 C10.10338339 28.93412067 10.10338339 28.93412067 7.04296875 28.07421875 C3.80232337 26.8734646 2.27329849 25.59570551 0 23 C-0.57983398 20.39672852 -0.57983398 20.39672852 -0.62109375 17.50390625 C-0.64018799 16.46806396 -0.65928223 15.43222168 -0.67895508 14.36499023 C-0.59900667 9.56410651 -0.37676091 4.78660249 0 0 Z " fill="#F8F8F8" transform="translate(50,64)"/>
<path d="M0 0 C1.24553459 7.53835856 2.46108817 15.62438258 0 23 C-5.08580068 28.92259156 -12.80410436 32.28115001 -20 35 C-20.33 35 -20.66 35 -21 35 C-22.1681429 27.14081025 -23.3878337 18.70779636 -21 11 C-16.56304266 5.63379979 -7.17285783 0 0 0 Z " fill="#F8F8F8" transform="translate(98,64)"/>
<path d="M0 0 C0.94875 0.515625 1.8975 1.03125 2.875 1.5625 C3.48972168 1.87074707 4.10444336 2.17899414 4.73779297 2.49658203 C6.76614503 3.51989924 8.75812567 4.5950573 10.75 5.6875 C11.43835938 6.06003906 12.12671875 6.43257812 12.8359375 6.81640625 C14.51794798 7.72749526 16.19680436 8.64440315 17.875 9.5625 C17.875 10.2225 17.875 10.8825 17.875 11.5625 C14.99718379 13.75536303 11.80762297 15.48730771 8.6875 17.3125 C7.82318359 17.84488281 6.95886719 18.37726563 6.06835938 18.92578125 C5.22724609 19.41949219 4.38613281 19.91320312 3.51953125 20.421875 C2.74971924 20.88045898 1.97990723 21.33904297 1.18676758 21.81152344 C-1.125 22.5625 -1.125 22.5625 -3.66601562 21.83154297 C-8.11836236 19.53375719 -8.11836236 19.53375719 -10.11328125 18.3984375 C-11.17192383 17.79902344 -11.17192383 17.79902344 -12.25195312 17.1875 C-12.97318359 16.775 -13.69441406 16.3625 -14.4375 15.9375 C-15.17806641 15.51726563 -15.91863281 15.09703125 -16.68164062 14.6640625 C-18.49769011 13.63301505 -20.31156533 12.59813954 -22.125 11.5625 C-22.125 10.9025 -22.125 10.2425 -22.125 9.5625 C-19.10123266 7.82094611 -16.05386464 6.12563338 -13 4.4375 C-12.1440625 3.94378906 -11.288125 3.45007812 -10.40625 2.94140625 C-3.99619885 -0.55946784 -3.99619885 -0.55946784 0 0 Z " fill="#F6F6F6" transform="translate(76.125,48.4375)"/>
<path d="M0 0 C4.73466068 1.69962178 8.96209912 4.13715471 13.3125 6.625 C15.849375 8.06875 18.38625 9.5125 21 11 C21 18.59 21 26.18 21 34 C12.50390625 29.8984375 12.50390625 29.8984375 9 28 C7.81265259 27.43079834 7.81265259 27.43079834 6.60131836 26.85009766 C3.99557705 25.42943814 2.03476172 24.16767209 0 22 C-1.08518219 18.1492105 -0.86153432 14.58656575 -0.5625 10.625 C-0.5015918 9.09166016 -0.5015918 9.09166016 -0.43945312 7.52734375 C-0.3337227 5.01330919 -0.18622786 2.50914186 0 0 Z " fill="#F8F8F8" transform="translate(50,104)"/>
<path d="M0 0 C2.05400374 18.84335739 2.05400374 18.84335739 -1.14697266 23.76269531 C-4.55791222 26.87717959 -8.74078519 28.39361511 -13 30 C-15.6914475 31.28541451 -18.34801164 32.63525924 -21 34 C-21.26275596 30.4597564 -21.42160329 26.92201867 -21.5625 23.375 C-21.63791016 22.37597656 -21.71332031 21.37695312 -21.79101562 20.34765625 C-21.88094803 17.32992456 -21.82472642 14.90873055 -21 12 C-18.35864671 9.24619685 -15.397 7.67836673 -12 6 C-11.01128906 5.37351562 -10.02257812 4.74703125 -9.00390625 4.1015625 C-8.19824219 3.61429687 -7.39257812 3.12703125 -6.5625 2.625 C-5.73878906 2.12226562 -4.91507813 1.61953125 -4.06640625 1.1015625 C-2 0 -2 0 0 0 Z " fill="#F8F8F8" transform="translate(98,104)"/>
<path d="M0 0 C2.43139048 1.17085402 4.84486425 2.36511736 7.24414062 3.60083008 C8.94559868 4.46467275 10.6711119 5.28473664 12.42773438 6.0300293 C14.75658572 7.15271834 16.29561313 8.04734077 18 10 C18.96968462 13.98012848 18.75829003 17.74691555 18.5 21.8125 C18.46390625 22.88693359 18.4278125 23.96136719 18.390625 25.06835938 C18.29649065 27.71588793 18.16518356 30.35611006 18 33 C14.01044313 31.45389898 10.43949788 29.61394025 6.75 27.4375 C5.69296875 26.81746094 4.6359375 26.19742188 3.546875 25.55859375 C1 24 1 24 0 23 C-0.08713831 21.29227642 -0.10700007 19.58101351 -0.09765625 17.87109375 C-0.09443359 16.83662109 -0.09121094 15.80214844 -0.08789062 14.73632812 C-0.07951172 13.64771484 -0.07113281 12.55910156 -0.0625 11.4375 C-0.05798828 10.34501953 -0.05347656 9.25253906 -0.04882812 8.12695312 C-0.03699826 5.41791505 -0.02051543 2.70898401 0 0 Z " fill="#F6F6F6" transform="translate(18,45)"/>
<path d="M0 0 C1.8011333 20.63872044 1.8011333 20.63872044 -2.2734375 25.98046875 C-5.1431646 27.72307783 -7.83823913 28.89061022 -11 30 C-12.66729593 30.99895048 -14.33409543 31.99873093 -16 33 C-16.66 33 -17.32 33 -18 33 C-20.159954 17.36623338 -20.159954 17.36623338 -18 10 C-14.40589506 5.49568586 -6.04083383 0 0 0 Z " fill="#F6F6F6" transform="translate(130,45)"/>
<path d="M0 0 C2.72679633 1.36997433 5.29753221 2.93160226 7.875 4.5625 C8.56335938 4.98724609 9.25171875 5.41199219 9.9609375 5.84960938 C11.64600952 6.8910775 13.32377031 7.94435916 15 9 C11.98869336 12.25683284 8.86396231 14.53545763 5.0625 16.8125 C4.04285156 17.43769531 3.02320312 18.06289063 1.97265625 18.70703125 C-1.50303814 20.21879845 -2.49214514 20.32332249 -6 19 C-8.68180158 17.59764354 -11.24681659 16.04074523 -13.8125 14.4375 C-14.50537109 14.01275391 -15.19824219 13.58800781 -15.91210938 13.15039062 C-17.61216951 12.10690544 -19.30665476 11.05434704 -21 10 C-19.62885797 5.88657391 -16.89384232 4.79439521 -13.3125 2.75 C-12.69955078 2.37359375 -12.08660156 1.9971875 -11.45507812 1.609375 C-7.18221475 -0.85556421 -4.68864901 -1.5749516 0 0 Z " fill="#F6F6F6" transform="translate(112,30)"/>
<path d="M0 0 C2.40247587 1.24501881 4.60879291 2.48907578 6.875 3.9375 C7.46796875 4.29779297 8.0609375 4.65808594 8.671875 5.02929688 C10.15535978 5.9573294 11.58365359 6.97241336 13 8 C13 8.66 13 9.32 13 10 C10.45325297 11.99600826 7.59704907 13.54591384 4.8125 15.1875 C4.04357422 15.66380859 3.27464844 16.14011719 2.48242188 16.63085938 C-3.17505598 19.98649645 -3.17505598 19.98649645 -6.625 20.04296875 C-9.83925986 18.63144345 -12.8374486 16.97570087 -15.8125 15.125 C-16.40998047 14.77308594 -17.00746094 14.42117187 -17.62304688 14.05859375 C-19.33203125 13.0078125 -19.33203125 13.0078125 -22 11 C-22 10.01 -22 9.02 -22 8 C-19.46917897 6.45806272 -16.92794722 4.94199516 -14.375 3.4375 C-13.66214844 2.99986328 -12.94929688 2.56222656 -12.21484375 2.11132812 C-7.78166127 -0.4713057 -5.10033052 -1.79608413 0 0 Z " fill="#F7F7F7" transform="translate(44,30)"/>
<path d="M0 0 C0.26275596 3.5402436 0.42160329 7.07798133 0.5625 10.625 C0.63791016 11.62402344 0.71332031 12.62304688 0.79101562 13.65234375 C0.88108312 16.67460869 0.83341948 19.08861026 0 22 C-2.6695303 24.72709247 -5.61529767 26.29985165 -9 28 C-10.13649032 28.7750812 -11.26338128 29.56465136 -12.375 30.375 C-15 32 -15 32 -18 32 C-19.04437629 24.79616645 -20.14996411 17.06866248 -18 10 C-14.3904052 5.57973971 -5.98454779 0 0 0 Z " fill="#F5F5F5" transform="translate(130,85)"/>
<path d="M0 0 C0.77053711 0.40049561 0.77053711 0.40049561 1.55664062 0.80908203 C4.67476824 2.40367799 7.61843033 3.88050844 10.96875 4.9296875 C14.3548543 6.19425114 15.8349906 7.04376227 18 10 C19.30395911 17.21388515 18.59905707 24.73574185 18 32 C15.99910052 31.33603786 13.99930951 30.66873456 12 30 C10.41058594 29.54560547 10.41058594 29.54560547 8.7890625 29.08203125 C4.8173723 27.48845185 2.73312647 26.3491645 0 23 C-1.57563917 15.49938974 -0.720908 7.57230673 0 0 Z " fill="#F6F6F6" transform="translate(18,85)"/>
<path d="M0 0 C2.39497478 1.29023129 4.61162309 2.58003933 6.875 4.0625 C7.46796875 4.43955078 8.0609375 4.81660156 8.671875 5.20507812 C10.12027322 6.12784796 11.56096031 7.06270263 13 8 C11.62380285 12.12859144 8.8494573 13.20982177 5.25 15.25 C4.62867187 15.62640625 4.00734375 16.0028125 3.3671875 16.390625 C0.70107734 17.92054476 -1.38722339 19.00287689 -4.49609375 18.98828125 C-7.96962953 17.61729131 -11.10953346 15.84740487 -14.3125 13.9375 C-14.95767578 13.56044922 -15.60285156 13.18339844 -16.26757812 12.79492188 C-17.84878152 11.86962507 -19.4249146 10.93567319 -21 10 C-21 9.34 -21 8.68 -21 8 C-18.65483738 6.32019522 -16.33603117 4.80340559 -13.875 3.3125 C-13.20984375 2.88388672 -12.5446875 2.45527344 -11.859375 2.01367188 C-7.56180296 -0.6027911 -4.99609362 -1.74066028 0 0 Z " fill="#F7F7F7" transform="translate(78,10)"/>
<path d="M0 0 C1.66778102 0.663874 3.33408531 1.33145646 5 2 C5.60021973 2.21060059 6.20043945 2.42120117 6.81884766 2.63818359 C11.83404974 4.48232173 16.80911923 6.55068063 20 11 C21.91715379 18.44834644 20.91317188 26.44830267 20 34 C18.68 33.67 17.36 33.34 16 33 C16.04825928 32.43603516 16.09651855 31.87207031 16.14624023 31.29101562 C16.7893 22.02219817 16.7893 22.02219817 15 13 C11.13279497 8.59098862 5.44440452 6.75583684 0 5 C0 3.35 0 1.7 0 0 Z " fill="#D8D8D8" transform="translate(87,44)"/>
<path d="M0 0 C0 1.65 0 3.3 0 5 C-1.07121094 5.34546875 -2.14242187 5.6909375 -3.24609375 6.046875 C-7.64420071 7.73638849 -11.83712823 9.39400095 -15 13 C-17.18950297 19.34109675 -16.56421715 26.40647743 -16 33 C-17.98 33.495 -17.98 33.495 -20 34 C-21.11221588 26.45879608 -22.24810575 18.40261673 -20 11 C-15.8399239 5.79756249 -6.89168824 0 0 0 Z " fill="#D2D2D2" transform="translate(61,44)"/>
<path d="M0 0 C5.70495996 1.66394666 10.07743832 4.47830556 15 7.734375 C17.93387231 9.29809825 17.93387231 9.29809825 20.98828125 8.43359375 C25.29681372 6.38270994 29.25593897 3.89721566 33.29296875 1.36328125 C34.18628906 0.91339844 35.07960937 0.46351562 36 0 C36.99 0.33 37.98 0.66 39 1 C35.3424433 4.94157152 31.64674817 7.75171927 27 10.4375 C26.39671875 10.81326172 25.7934375 11.18902344 25.171875 11.57617188 C22.40801955 13.1834139 20.70680317 14.15090303 17.51171875 13.46875 C16.26841797 12.74171875 16.26841797 12.74171875 15 12 C13.85144531 11.39285156 12.70289062 10.78570312 11.51953125 10.16015625 C10.2819011 9.4644003 9.04625329 8.76510767 7.8125 8.0625 C7.18408203 7.71509766 6.55566406 7.36769531 5.90820312 7.00976562 C2.76949663 5.22724889 1.03600395 4.05400593 -1 1 C-0.67 0.67 -0.34 0.34 0 0 Z " fill="#E8E8E8" transform="translate(55,97)"/>
<path d="M0 0 C6.03523728 3.27408894 12.05469543 6.56493514 18 10 C18 13.3 18 16.6 18 20 C16.35 20.33 14.7 20.66 13 21 C13.0825 19.824375 13.165 18.64875 13.25 17.4375 C13.13208693 15.15462756 13.13208693 15.15462756 12 13 C8.97408513 10.92373031 5.92257612 9.36813885 2.58984375 7.8359375 C1.73519531 7.23007812 0.88054688 6.62421875 0 6 C-0.37109375 2.7890625 -0.37109375 2.7890625 0 0 Z " fill="#E8E8E8" transform="translate(53,24)"/>
<path d="M0 0 C0.37109375 2.7890625 0.37109375 2.7890625 0 6 C-2.58984375 7.8359375 -2.58984375 7.8359375 -5.9375 9.375 C-10.31124427 11.47265019 -10.31124427 11.47265019 -13.01953125 15.22265625 C-13.33758342 17.65929049 -13.33758342 17.65929049 -13 21 C-14.65 20.67 -16.3 20.34 -18 20 C-19.21154536 16.27825935 -19.43221009 13.67998425 -18 10 C-14.0614531 6.53165787 -5.42806862 0 0 0 Z " fill="#E8E8E8" transform="translate(95,24)"/>
<path d="M0 0 C3.40667322 0.44824648 5.07914607 1.05276405 8 3 C8.34057617 5.24658203 8.34057617 5.24658203 8.29296875 8.0078125 C8.28330078 8.99394531 8.27363281 9.98007813 8.26367188 10.99609375 C8.23853516 12.02863281 8.21339844 13.06117187 8.1875 14.125 C8.17396484 15.16527344 8.16042969 16.20554687 8.14648438 17.27734375 C8.11105228 19.85207627 8.06165221 22.4257833 8 25 C6.68 24.67 5.36 24.34 4 24 C3.9906543 23.44538086 3.98130859 22.89076172 3.97167969 22.31933594 C3.91784278 19.79533519 3.83422746 17.27316186 3.75 14.75 C3.73582031 13.87730469 3.72164063 13.00460938 3.70703125 12.10546875 C3.55833294 6.84490626 3.55833294 6.84490626 0.953125 2.390625 C0.30859375 1.93171875 -0.3359375 1.4728125 -1 1 C-0.67 0.67 -0.34 0.34 0 0 Z " fill="#D3D3D3" transform="translate(99,92)"/>
<path d="M0 0 C0.556875 0.391875 1.11375 0.78375 1.6875 1.1875 C1.04296875 1.48269531 0.3984375 1.77789062 -0.265625 2.08203125 C-3.55296816 5.46347774 -2.98936525 9.33067276 -3.0625 13.875 C-3.09214844 14.76767578 -3.12179688 15.66035156 -3.15234375 16.58007812 C-3.22301427 18.78264277 -3.27571939 20.98415131 -3.3125 23.1875 C-4.6325 23.5175 -5.9525 23.8475 -7.3125 24.1875 C-7.45750644 20.58375537 -7.54646763 16.98075758 -7.625 13.375 C-7.66689453 12.35083984 -7.70878906 11.32667969 -7.75195312 10.27148438 C-7.79750569 7.49277774 -7.79024834 4.92595465 -7.3125 2.1875 C-4.60863296 -0.37405825 -3.57899122 -1.2574834 0 0 Z " fill="#D3D3D3" transform="translate(48.3125,92.8125)"/>
<path d="M0 0 C0.55816406 0.22429687 1.11632812 0.44859375 1.69140625 0.6796875 C-1.31990039 3.93652034 -4.44463144 6.21514513 -8.24609375 8.4921875 C-9.77556641 9.42998047 -9.77556641 9.42998047 -11.3359375 10.38671875 C-14.67091107 11.83727887 -15.93251262 11.88502273 -19.30859375 10.6796875 C-20.29859375 10.0196875 -21.28859375 9.3596875 -22.30859375 8.6796875 C-22.30859375 7.3596875 -22.30859375 6.0396875 -22.30859375 4.6796875 C-21.58671875 5.0303125 -20.86484375 5.3809375 -20.12109375 5.7421875 C-16.85291922 6.83157901 -15.58377581 6.61476167 -12.30859375 5.6796875 C-9.68783995 4.18557516 -7.21802069 2.53591445 -4.7109375 0.859375 C-2.30859375 -0.3203125 -2.30859375 -0.3203125 0 0 Z " fill="#DFDFDF" transform="translate(125.30859375,78.3203125)"/>
<path d="M0 0 C3.37765412 1.58102959 6.49530998 3.47363124 9.65625 5.44921875 C13.41557643 6.97483581 16.22553757 5.61232081 19.9375 4.375 C19.9375 5.695 19.9375 7.015 19.9375 8.375 C17.48185674 10.40967584 15.9543495 11.45377003 12.71875 11.203125 C9.00723006 10.09800951 5.93783262 8.28791719 2.625 6.3125 C1.65723633 5.74692383 1.65723633 5.74692383 0.66992188 5.16992188 C-0.91128152 4.24462507 -2.4874146 3.31067319 -4.0625 2.375 C-4.0625 1.715 -4.0625 1.055 -4.0625 0.375 C-2.0625 -0.625 -2.0625 -0.625 0 0 Z " fill="#E0E0E0" transform="translate(25.0625,78.625)"/>
<path d="M0 0 C0 1.65 0 3.3 0 5 C-2.12232979 6.17176518 -4.24757791 7.33754785 -6.375 8.5 C-6.97828125 8.83386719 -7.5815625 9.16773438 -8.203125 9.51171875 C-12.7734375 12 -12.7734375 12 -15 12 C-13.63479687 7.29492493 -11.63908099 5.68728707 -7.5 3.1875 C-6.5203125 2.58292969 -5.540625 1.97835937 -4.53125 1.35546875 C-2 0 -2 0 0 0 Z " fill="#E3E3E3" transform="translate(61,44)"/>
<path d="M0 0 C1.0209375 0.5259375 1.0209375 0.5259375 2.0625 1.0625 C5.7087789 2.22620603 8.28489978 1.72845102 12 1 C11.3125 3.4375 11.3125 3.4375 10 6 C7.6875 7 7.6875 7 5 7 C2.1875 5.8125 2.1875 5.8125 0 4 C0 2.68 0 1.36 0 0 Z " fill="#DADADA" transform="translate(103,83)"/>
<path d="M0 0 C-1.62339805 1.70884005 -3.29319053 3.37446717 -5 5 C-5.66 5 -6.32 5 -7 5 C-7 3.68 -7 2.36 -7 1 C-3.375 -1.125 -3.375 -1.125 0 0 Z " fill="#E4E4E4" transform="translate(94,98)"/>
<path d="M0 0 C0.66 0.33 1.32 0.66 2 1 C0.9024777 3.99324263 0.32317108 4.84610901 -2.625 6.25 C-3.40875 6.4975 -4.1925 6.745 -5 7 C-3.75023244 3.34683329 -3.32901247 2.21934164 0 0 Z " fill="#E9E9E9" transform="translate(118,81)"/>
</svg>
